<?xml version="1.0" standalone="no"?>
<!DOCTYPE svg PUBLIC "-//W3C//DTD SVG 1.1//EN" "http://www.w3.org/Graphics/SVG/1.1/DTD/svg11.dtd" >
<svg xmlns="http://www.w3.org/2000/svg" xmlns:xlink="http://www.w3.org/1999/xlink" version="1.1">
<metadata></metadata>
<defs>
<font id="khandmedium" horiz-adv-x="446" >
<font-face units-per-em="2048" ascent="1638" descent="-410" />
<missing-glyph horiz-adv-x="385" />
<glyph unicode="&#xfb01;" horiz-adv-x="983" d="M51 1020v158h117v43q0 303 379 303q137 0 260 -29v-158q-115 29 -234.5 29t-166 -34t-46.5 -109v-45h496v-1178h-192v1020h-304v-1020h-192v1020h-117z" />
<glyph unicode="&#xfb02;" horiz-adv-x="983" d="M51 1020v158h117v43q0 303 367 303q117 0 247 -33h74v-1491h-190v1360q-78 8 -117 8q-102 0 -145.5 -35t-43.5 -110v-45h177v-158h-177v-1020h-192v1020h-117z" />
<glyph horiz-adv-x="0" />
<glyph horiz-adv-x="682" />
<glyph horiz-adv-x="0" />
<glyph horiz-adv-x="0" />
<glyph unicode="&#xd;" horiz-adv-x="681" />
<glyph unicode=" "  horiz-adv-x="385" />
<glyph unicode="&#x09;" horiz-adv-x="385" />
<glyph unicode="&#xa0;" horiz-adv-x="385" />
<glyph unicode="!" horiz-adv-x="557" d="M166 98.5q0 112.5 112.5 112.5t112.5 -112.5t-112.5 -112.5t-112.5 112.5zM174 1389h207l-25 -1006h-157z" />
<glyph unicode="&#x22;" horiz-adv-x="796" d="M168 1083v461h168v-461h-168zM455 1083v461h170v-461h-170z" />
<glyph unicode="#" horiz-adv-x="1146" d="M76 352v150h178l53 360h-157v148h178l51 354h170l-51 -354h262l51 354h168l-51 -354h153v-148h-174l-53 -360h154v-150h-174l-52 -352h-168l52 352h-265l-51 -352h-168l51 352h-157zM424 502h262l53 360h-264z" />
<glyph unicode="$" horiz-adv-x="825" d="M53 971v123q0 252 266 297v122h181v-116q123 -6 207 -35v-184q-111 43 -269 43q-190 0 -190 -142v-80q0 -66 25.5 -103.5t91.5 -74.5l237 -133q166 -90 166 -272v-115q0 -256 -287 -301v-139h-180v131q-143 6 -235 41v184q135 -49 284 -49q223 0 223 151v70 q0 61 -22.5 95t-83.5 67l-231 127q-182 98 -183 293z" />
<glyph unicode="%" horiz-adv-x="1253" d="M72 1095.5q0 145.5 61.5 227.5t183.5 82q248 0 248 -309.5t-248 -309.5q-123 0 -184 82t-61 227.5zM215 1095q0 -177 102.5 -177t102.5 177t-102.5 177t-102.5 -177zM266 0l584 1389h137l-584 -1389h-137zM688 293q0 309 247 309t247 -309q0 -145 -61.5 -227t-186.5 -82 q-246 0 -246 309zM829 293q0 -176 103.5 -176t103.5 176t-103.5 176t-103.5 -176z" />
<glyph unicode="&#x26;" horiz-adv-x="964" d="M109 319v156q0 190 155 246q-154 55 -153 246v116q0 147 101 231.5t282.5 84.5t283.5 -33v-184q-104 39 -240.5 39t-185.5 -40t-49 -114v-98q0 -170 158 -170h201v125h186v-125h90v-166h-90v-314q0 -154 -92 -244.5t-274.5 -90.5t-277.5 92t-95 243zM301 324 q0 -170 180.5 -170t180.5 170v309h-197q-164 0 -164 -168v-141z" />
<glyph unicode="'" horiz-adv-x="512" d="M168 1083v461h174v-461h-174z" />
<glyph unicode="(" horiz-adv-x="624" d="M137 673q0 255 56.5 516t146.5 453h168q-90 -204 -146.5 -461t-56.5 -508t56.5 -509t146.5 -463h-168q-90 190 -146.5 453.5t-56.5 518.5z" />
<glyph unicode=")" horiz-adv-x="624" d="M115 -299q90 205 146 463t56 509t-56 508t-146 461h170q90 -192 146 -453t56 -516t-56 -518.5t-146 -453.5h-170z" />
<glyph unicode="*" horiz-adv-x="1050" d="M104 1270l52 164l190 -62q66 -23 111 -53q-17 49 -17 121v198h172v-198q0 -72 -16 -121q45 31 111 53l190 62l53 -164l-188 -62q-68 -23 -123 -22q41 -29 86 -88l117 -162l-140 -102l-118 161q-41 59 -58 107q-16 -47 -57 -107l-117 -161l-139 102l117 162q45 59 86 88 q-55 0 -123 22z" />
<glyph unicode="+" horiz-adv-x="940" d="M88 588v164h293v301h178v-301h293v-164h-293v-301h-178v301h-293z" />
<glyph unicode="," horiz-adv-x="342" d="M18 -262l86 471h97q90 0 90 -80q0 -104 -164 -391h-109z" />
<glyph unicode="-" horiz-adv-x="518" d="M82 588v164h364v-164h-364z" />
<glyph unicode="." horiz-adv-x="366" d="M70 98.5q0 112.5 112.5 112.5t112.5 -112.5t-112.5 -112.5t-112.5 112.5z" />
<glyph unicode="/" horiz-adv-x="821" d="M70 -299l538 1944h172l-540 -1944h-170z" />
<glyph unicode="0" horiz-adv-x="927" d="M106 315v756q0 154 88.5 246t269.5 92t269 -92t88 -246v-756q0 -154 -88 -244.5t-269 -90.5t-269.5 91t-88.5 244zM299 322q0 -82 37 -125t127 -43q166 0 166 168v745q0 168 -166 168q-90 0 -127 -43t-37 -125v-745z" />
<glyph unicode="1" horiz-adv-x="593" d="M25 993v215l247 181h195v-1389h-193v1174z" />
<glyph unicode="2" horiz-adv-x="845" d="M84 0v307q0 125 51 201t154 147l174 136q59 39 79.5 84t20.5 122v78q0 74 -41 110t-169 36t-247 -47v186q113 39 265 39q385 0 385 -307v-119q0 -109 -36 -181.5t-120 -132.5l-166 -124q-94 -68 -124.5 -113t-30.5 -129v-119h475v-174h-670z" />
<glyph unicode="3" horiz-adv-x="821" d="M53 29v184q125 -47 252 -47t172 38t45 111v131q0 80 -39 120t-129 40h-145v178h143q88 0 125 43t37 125v123q0 72 -43 110t-171 38t-220 -35v182q85 29 239 29q389 0 390 -309v-142q0 -195 -148 -246q154 -41 154 -233v-170q0 -147 -97.5 -228t-278.5 -81t-286 39z" />
<glyph unicode="4" horiz-adv-x="864" d="M20 252v178l424 959h273v-967h137v-170h-137v-252h-185v252h-512zM193 422h344v784z" />
<glyph unicode="5" horiz-adv-x="870" d="M106 33v184q150 -51 266.5 -51t163 38t46.5 109v197q0 82 -37 119t-131 37q-45 0 -297 -23v746h622v-179h-432v-379q72 8 152 9q158 0 237.5 -80t79.5 -230v-231q0 -147 -97 -228t-272.5 -81t-300.5 43z" />
<glyph unicode="6" horiz-adv-x="905" d="M106 315v742q0 154 95.5 248t278 94t286.5 -39v-182q-109 43 -264 43q-203 0 -203 -179v-198q80 37 218 37t221 -78t83 -225v-263q0 -154 -88 -244.5t-269 -90.5t-269.5 91t-88.5 244zM299 319q0 -170 165 -169.5t165 169.5v246q0 147 -156 148q-104 0 -174 -39v-355z " />
<glyph unicode="7" horiz-adv-x="708" d="M10 1212v177h656v-154l-150 -461q-98 -307 -98 -569v-205h-197v217q0 266 103 580l131 415h-445z" />
<glyph unicode="8" horiz-adv-x="944" d="M106 307v133q0 180 132 252q-129 70 -129 250v137q0 152 90 241t273 89t273.5 -88t90.5 -242v-137q0 -180 -129 -250q131 -72 131 -252v-133q0 -152 -91.5 -239.5t-274.5 -87.5t-274.5 88t-91.5 239zM297 309q0 -162 175 -162t175 162v135q0 170 -175 170t-175 -170v-135 zM301 938q0 -168 171 -168t171 168v141q0 162 -171 162t-171 -162v-141z" />
<glyph unicode="9" horiz-adv-x="905" d="M84 799v272q0 154 88 246t270.5 92t269.5 -91t87 -247v-760q0 -147 -98.5 -234t-281.5 -87t-292 41v184q125 -49 274 -49q205 0 205 162v198q-74 -37 -216 -37t-224 81t-82 229zM276 815q0 -156 158 -156q115 0 172 39v371q0 170 -165 170t-165 -170v-254z" />
<glyph unicode=":" d="M70 98.5q0 112.5 112.5 112.5t112.5 -112.5t-112.5 -112.5t-112.5 112.5zM70 816q0 114 112.5 114t112.5 -114t-112.5 -114t-112.5 114z" />
<glyph unicode=";" d="M18 -262l86 471h97q90 0 90 -80q0 -104 -164 -391h-109zM70 816q0 114 112.5 114t112.5 -114t-112.5 -114t-112.5 114z" />
<glyph unicode="&#x3c;" horiz-adv-x="972" d="M82 573v189l774 293v-174l-606 -211l606 -213v-174z" />
<glyph unicode="=" horiz-adv-x="931" d="M76 397v162h774v-162h-774zM76 778v162h774v-162h-774z" />
<glyph unicode="&#x3e;" horiz-adv-x="968" d="M104 283v174l609 213l-609 211v174l777 -293v-189z" />
<glyph unicode="?" horiz-adv-x="802" d="M66 1192v184q112 33 253 33q387 0 388 -305v-193q0 -150 -72 -233.5t-242 -85.5l-10 -209h-162l-10 360h115q102 0 147 42t45 128v177q0 74 -42 107.5t-170 33.5t-240 -39zM190 98.5q0 112.5 113 112.5t113 -112.5t-113 -112.5t-113 112.5z" />
<glyph unicode="@" horiz-adv-x="1789" d="M141 566.5q0 398.5 175.5 607t588.5 208.5q434 0 602 -215q86 -109 123 -250t37 -335q0 -287 -90 -412t-264 -125t-242 109q-80 -55 -211 -56q-256 0 -256 234v37q0 102 52.5 158.5t160.5 93.5l209 69v115q0 59 -27.5 89t-111.5 30t-240 -37v139q123 33 250 33 q283 0 283 -248v-467q0 -82 33.5 -116.5t116.5 -34.5t127 84.5t44 276t-24.5 302.5t-87.5 201q-121 174 -484 174q-360 0 -485 -182q-63 -92 -88 -206t-25 -275.5t25.5 -275.5t89.5 -206q127 -180 483 -180h180v-154h-180q-418 0 -591 208t-173 606.5zM762 330 q0 -98 112 -99q82 0 152 45v273l-149 -47q-63 -20 -89 -45t-26 -84v-43z" />
<glyph unicode="A" horiz-adv-x="927" d="M27 0l303 1389h270l299 -1389h-188l-76 369h-344l-76 -369h-188zM324 535h276l-139 673z" />
<glyph unicode="B" horiz-adv-x="972" d="M127 0v1389h391q166 0 251 -81t85 -235v-121q0 -195 -147 -250q160 -53 159 -258v-129q0 -154 -85 -234.5t-251 -80.5h-403zM319 166h189q168 0 168 158v131q0 157 -166 157h-2h-189v-446zM319 784h177q168 0 168 160v121q0 158 -168 158h-177v-439z" />
<glyph unicode="C" horiz-adv-x="817" d="M106 297v795q0 145 98.5 226t297.5 81q131 0 241 -31v-178q-121 35 -237.5 35t-160.5 -37t-44 -111v-768q0 -72 45 -108.5t166 -36.5t238 33v-174q-106 -33 -250 -33q-393 0 -394 307z" />
<glyph unicode="D" horiz-adv-x="968" d="M127 0v1389h401q164 0 250 -82t86 -230v-758q0 -150 -81 -234.5t-246 -84.5h-410zM319 168h191q162 0 162 162v741q0 156 -162 156h-191v-1059z" />
<glyph unicode="E" horiz-adv-x="827" d="M127 0v1389h633v-170h-441v-433h383v-170h-383v-448h441v-168h-633z" />
<glyph unicode="F" horiz-adv-x="778" d="M127 0v1389h614v-170h-419v-467h397v-172h-397v-580h-195z" />
<glyph unicode="G" horiz-adv-x="929" d="M106 297v784q0 150 101.5 234t308.5 84q139 0 260 -35v-184q-123 41 -258 41q-217 0 -217 -156v-754q0 -147 180 -147q100 0 152 35v501h190v-628q-150 -82 -335 -82t-283.5 76.5t-98.5 230.5z" />
<glyph unicode="H" horiz-adv-x="1036" d="M127 0v1389h195v-621h391v621h196v-1389h-196v596h-391v-596h-195z" />
<glyph unicode="I" d="M127 0v1389h195v-1389h-195z" />
<glyph unicode="J" horiz-adv-x="452" d="M-8 -305l61 215q78 268 78 500v979h195v-977q0 -264 -70 -504l-63 -213h-201z" />
<glyph unicode="K" horiz-adv-x="917" d="M127 0v1389h192v-1389h-192zM387 698l279 691h206l-280 -687l299 -702h-215z" />
<glyph unicode="L" horiz-adv-x="737" d="M127 0v1389h195v-1223h405v-166h-600z" />
<glyph unicode="M" horiz-adv-x="1273" d="M127 0v1389h215l295 -824l295 824h215v-1389h-184v657q0 211 20 412l-258 -704h-178l-258 704q20 -190 20 -410v-659h-182z" />
<glyph unicode="N" horiz-adv-x="1042" d="M127 0v1389h207q285 -721 346 -893t70 -195q0 18 -11.5 181t-13.5 315v592h190v-1389h-204q-322 821 -420 1090q0 -23 8 -95q16 -178 16 -395v-600h-188z" />
<glyph unicode="O" horiz-adv-x="954" d="M106 315v756q0 154 93.5 246t276.5 92t277.5 -93t94.5 -245v-756q0 -152 -94.5 -243.5t-276.5 -91.5t-276.5 92t-94.5 243zM299 324q0 -170 178 -170t178 170v741q0 168 -178 168t-178 -168v-741z" />
<glyph unicode="P" horiz-adv-x="917" d="M127 0v1389h373q164 0 251 -82t87 -230v-311q0 -147 -87 -229t-251 -82h-181v-455h-192zM319 623h162q164 0 164 159v279q0 158 -164 158h-162v-596z" />
<glyph unicode="Q" horiz-adv-x="954" d="M106 315v756q0 154 93.5 246t276.5 92t277.5 -93t94.5 -245v-756q0 -182 -127 -270l227 -244h-235l-168 183q-41 -4 -68 -4q-182 0 -276.5 92t-94.5 243zM299 324q0 -170 178 -170t178 170v741q0 168 -178 168t-178 -168v-741z" />
<glyph unicode="R" horiz-adv-x="950" d="M127 0v1389h373q164 0 251 -82t87 -228v-221q0 -227 -174 -293l221 -565h-213l-199 541h-154v-541h-192zM319 702h164q86 0 124 39t38 119v207q0 154 -162 154h-164v-519z" />
<glyph unicode="S" horiz-adv-x="825" d="M53 971v123q0 145 95.5 225t271.5 80t287 -37v-184q-111 43 -269 43q-190 0 -190 -142v-80q0 -66 25.5 -103.5t91.5 -74.5l237 -133q166 -90 166 -272v-115q0 -150 -104.5 -230.5t-294 -80.5t-303.5 43v184q135 -49 284 -49q223 0 223 151v70q0 61 -22.5 95t-83.5 67 l-231 127q-182 98 -183 293z" />
<glyph unicode="T" horiz-adv-x="753" d="M16 1219v170h723v-170h-264v-1219h-194v1219h-265z" />
<glyph unicode="U" horiz-adv-x="970" d="M117 315v1074h192v-1065q0 -170 176.5 -170t176.5 170v1065h192v-1074q0 -152 -93 -243.5t-275.5 -91.5t-275.5 92t-93 243z" />
<glyph unicode="V" horiz-adv-x="899" d="M23 1389h196q152 -756 187.5 -962t44.5 -249q18 84 51 284t45 267l129 660h201l-291 -1389h-271z" />
<glyph unicode="W" horiz-adv-x="1236" d="M33 1389h178l113 -717l47 -373q23 188 49 373l110 717h181l108 -717l49 -367q23 213 45 367l115 717h176l-215 -1389h-205q-139 854 -163 1092q-18 -225 -56 -441l-106 -651h-213z" />
<glyph unicode="X" horiz-adv-x="847" d="M23 0l299 692l-299 697h208l195 -486l192 486h209l-303 -697l303 -692h-211l-190 481l-195 -481h-208z" />
<glyph unicode="Y" horiz-adv-x="880" d="M6 1389h199l117 -328q63 -184 122 -391q57 201 121 391l117 328h195l-338 -932v-457h-195v457z" />
<glyph unicode="Z" horiz-adv-x="808" d="M53 0v166l492 1057h-482v166h689v-162l-498 -1061h496v-166h-697z" />
<glyph unicode="[" horiz-adv-x="653" d="M172 -303v1962h410v-152h-250v-1657h250v-153h-410z" />
<glyph unicode="\" horiz-adv-x="860" d="M72 1659h174l553 -1962h-176z" />
<glyph unicode="]" horiz-adv-x="653" d="M70 -150h249v1657h-249v152h411v-1962h-411v153z" />
<glyph unicode="^" horiz-adv-x="724" d="M4 788l238 615h235l236 -615h-189l-166 502l-165 -502h-189z" />
<glyph unicode="_" horiz-adv-x="1028" d="M8 -16h1012l-2 -156h-1010v156z" />
<glyph unicode="`" horiz-adv-x="716" d="M236 1491h163l82 -223h-114z" />
<glyph unicode="a" horiz-adv-x="878" d="M57 279v67q0 115 59.5 185.5t190.5 107.5l268 74v157q0 76 -40.5 110t-173 34t-246.5 -41v176q117 39 297 39q350 0 350 -318v-870h-184v84q-90 -90 -238 -90q-283 0 -283 285zM248 276q0 -68 31.5 -100.5t125 -32.5t170.5 64v342l-194 -53q-80 -23 -106.5 -56.5 t-26.5 -101.5v-62z" />
<glyph unicode="b" horiz-adv-x="925" d="M127 0v1491h192v-352q111 45 233 45t194.5 -68.5t72.5 -200.5v-612q0 -147 -84 -225t-223 -78h-385zM319 176h146q160 0 160 148v559q0 121 -125 121q-74 0 -181 -41v-787z" />
<glyph unicode="c" horiz-adv-x="761" d="M106 301v576q0 311 361 311q129 0 229 -29v-178q-102 29 -207.5 29t-147.5 -35t-42 -111v-553q0 -76 42 -110.5t150.5 -34.5t206.5 33v-181q-115 -28 -224 -28h-7q-360 0 -361 311z" />
<glyph unicode="d" horiz-adv-x="923" d="M106 283v571q0 152 88.5 238t245.5 86h164v313h195v-1491h-191v74q-84 -80 -221 -80t-209 74.5t-72 214.5zM299 305q0 -137 135 -137q109 0 170 57v779h-139q-166 0 -166 -156v-543z" />
<glyph unicode="e" horiz-adv-x="890" d="M106 311v566q0 147 86.5 234t262.5 87t260 -87t84 -234v-375h-504v-180q0 -82 50 -121t176 -39t245 37v-176q-123 -33 -262 -33h-2q-396 0 -396 321zM295 657h321v217q0 160 -160.5 160t-160.5 -160v-217z" />
<glyph unicode="f" horiz-adv-x="571" d="M51 1020v158h117v53q0 299 307 299q55 0 96 -8v-158q-31 6 -73 6q-137 0 -138 -137v-55h203v-158h-203v-1020h-192v1020h-117z" />
<glyph unicode="g" horiz-adv-x="919" d="M66 -53q135 -88 333 -88h66q123 0 174 28.5t51 85.5v19q0 49 -25.5 72.5t-99.5 23.5h-125q-264 0 -264 178v33q0 115 109 139q-207 59 -207 287v168q0 145 89 225t248.5 80t246.5 -49q43 131 194 131h31v-178h-70q-47 0 -80 -19q57 -72 58 -190v-168q0 -143 -87 -223 t-264 -82q-96 0 -96 -90q0 -43 25.5 -61.5t91.5 -18.5h119q291 0 290 -244v-35q0 -276 -391 -276h-80q-223 0 -337 72v180zM270 727q0 -76 39 -111.5t127 -35.5t127 35.5t39 111.5v164q0 76 -39 111.5t-127 35.5t-127 -35.5t-39 -111.5v-164z" />
<glyph unicode="h" horiz-adv-x="931" d="M127 0v1491h192v-352q104 45 224.5 45t196 -67.5t75.5 -201.5v-915h-197v883q0 121 -120 121q-92 0 -179 -43v-961h-192z" />
<glyph unicode="i" d="M111 1393.5q0 113.5 112.5 113.5t112.5 -113.5t-112.5 -113.5t-112.5 113.5zM127 0v1163h192v-1163h-192z" />
<glyph unicode="j" d="M-47 -129q33 -4 51 -4q63 0 93 33.5t30 105.5v1157h192v-1157q0 -147 -76.5 -231t-226.5 -84q-41 0 -63 6v174zM111 1393.5q0 113.5 112.5 113.5t112.5 -113.5t-112.5 -113.5t-112.5 113.5z" />
<glyph unicode="k" horiz-adv-x="843" d="M127 0v1491h188v-1491h-188zM362 618l232 560h199l-232 -564l254 -614h-207z" />
<glyph unicode="l" d="M127 0v1491h192v-1491h-192z" />
<glyph unicode="m" horiz-adv-x="1425" d="M127 0v1178h184v-54q131 58 250 58h1q118 0 190 -80q139 80 275 80t209 -67.5t73 -199.5v-915h-195v883q0 121 -123 121q-98 0 -186 -56q10 -23 10 -63v-885h-197v883q0 121 -120 121q-88 0 -179 -46v-958h-192z" />
<glyph unicode="n" horiz-adv-x="931" d="M127 0v1178h184v-54q131 58 245 58h2q112 0 184 -69t73 -198v-915h-197v883q0 121 -120 121q-88 0 -179 -46v-958h-192z" />
<glyph unicode="o" horiz-adv-x="909" d="M106 301v576q0 147 86.5 234t262.5 87t263 -87t87 -234v-576q0 -147 -87 -234t-263 -87t-262.5 87t-86.5 234zM297 305q0 -158 157.5 -158t157.5 158v567q0 158 -157.5 158t-157.5 -158v-567z" />
<glyph unicode="p" horiz-adv-x="925" d="M127 -305v1483h184v-56q119 59 241 60h2q121 0 192 -68q73 -67 73 -199v-610q0 -147 -83 -226t-222 -79h-195v-305h-192zM319 176h148q158 0 158 150v557q0 121 -125 121q-90 0 -181 -46v-782z" />
<glyph unicode="q" horiz-adv-x="923" d="M106 297v549q0 154 89 243t251 89h353v-1483h-193v352q-80 -51 -211 -51q-289 0 -289 301zM299 311q0 -141 137 -141q104 0 168 55v779h-135q-170 0 -170 -162v-531z" />
<glyph unicode="r" horiz-adv-x="602" d="M127 0v1178h184v-86q6 4 23.5 16t22.5 15t20.5 13.5t22 12.5t19.5 9t21.5 9t21.5 7.5t25 5.5q38 4 58 4h47v-183h-62q-96 0 -211 -77v-924h-192z" />
<glyph unicode="s" horiz-adv-x="755" d="M53 825v66q0 150 87 223.5t284 73.5q131 0 233 -33v-176q-98 37 -216.5 37t-157.5 -32t-39 -103v-41q0 -55 22.5 -84t85.5 -62l174 -94q176 -94 176 -254v-53q0 -303 -393 -303q-133 0 -252 30v179q104 -35 230.5 -35t174.5 32.5t48 100.5v35q0 49 -25.5 78.5 t-101.5 68.5l-166 86q-164 84 -164 260z" />
<glyph unicode="t" horiz-adv-x="612" d="M10 1012v166h129l58 211h129v-211h237v-166h-237v-731q0 -119 123 -119q59 0 133 24v-174q-2 0 -19.5 -4t-36.5 -8q-55 -12 -106 -12q-287 0 -287 278v746h-123z" />
<glyph unicode="u" horiz-adv-x="933" d="M117 283v895h194v-869q0 -139 135 -139q86 0 168 51v957h195v-1178h-184v55q-106 -59 -235.5 -59t-201 73.5t-71.5 213.5z" />
<glyph unicode="v" horiz-adv-x="821" d="M27 1178h196q143 -698 191 -1035q37 266 90 545l96 490h195l-256 -1178h-252z" />
<glyph unicode="w" horiz-adv-x="1241" d="M27 1178h200l135 -957l162 957h195l162 -959l135 959h196l-202 -1178h-244q-127 774 -143 920q-20 -172 -146 -920h-241z" />
<glyph unicode="x" horiz-adv-x="770" d="M16 0l267 590l-267 588h207l162 -398l162 398h207l-271 -588l271 -590h-207l-162 406l-162 -406h-207z" />
<glyph unicode="y" horiz-adv-x="829" d="M33 1178h192q158 -772 191 -1035q33 244 86 512l106 523h191l-310 -1483h-186l62 305h-82z" />
<glyph unicode="z" horiz-adv-x="681" d="M41 0v135l391 877h-381v166h588v-134l-395 -878h397v-166h-600z" />
<glyph unicode="{" horiz-adv-x="755" d="M117 590v166h8q74 0 112.5 35.5t38.5 101.5v461q0 133 79 212t220 79h60v-166h-49q-142 0 -142 -119v-412q0 -125 -38.5 -191.5t-141.5 -82.5q104 -14 142 -79t38 -189v-422q0 -119 142 -119h49v-164h-60q-143 0 -221 78t-78 213v461q0 66 -38.5 101.5t-112.5 35.5h-8z " />
<glyph unicode="|" horiz-adv-x="434" d="M147 -332v2024h140v-2024h-140z" />
<glyph unicode="}" horiz-adv-x="753" d="M115 -135h49q141 0 141 119v422q0 125 39 189t141 79q-102 16 -141 82.5t-39 191.5v412q0 119 -141 119h-49v166h59q143 0 222 -79t79 -212v-461q0 -66 39 -101.5t113 -35.5h6v-166h-6q-74 0 -113 -36t-39 -101v-461q0 -135 -79 -213t-222 -78h-59v164z" />
<glyph unicode="~" horiz-adv-x="993" d="M49 643q0 96 53 152q92 102 291 32l213 -84q80 -37 129 -14t35 107h164q8 -35 8 -78q0 -96 -51 -152q-94 -102 -293 -33l-213 84q-76 37 -128 14.5t-38 -106.5h-164q-6 39 -6 78z" />
<glyph unicode="&#xa1;" horiz-adv-x="557" d="M166 1079.5q0 112.5 112.5 112.5t112.5 -112.5t-112.5 -112.5t-112.5 112.5zM174 -211l25 1006h157l25 -1006h-207z" />
<glyph unicode="&#xa2;" horiz-adv-x="806" d="M119 301v576q0 270 266 305v157h178v-153q86 -8 146 -27v-178q-102 29 -208 29t-148 -35t-42 -111v-553q0 -76 42 -110.5t150.5 -34.5t207.5 33v-181q-84 -20 -152 -26v-144h-178v148q-262 39 -262 305z" />
<glyph unicode="&#xa3;" horiz-adv-x="976" d="M98 0v170q18 0 47 13.5t39.5 21.5t22.5 23.5t18 33.5q18 41 19 100v269h-127v164h127v252q0 166 95 257t286 91q131 0 245 -37v-182q-111 39 -229.5 38.5t-161.5 -45.5t-43 -135v-239h330v-164h-330v-244q0 -70 -18.5 -119t-33.5 -63.5t-42 -32.5h545v-172h-789z" />
<glyph unicode="&#xa4;" horiz-adv-x="942" d="M61 346l95 92q-31 70 -31 164v184q0 94 31 164l-93 92l117 117l90 -90q78 43 204 43t206 -43l90 90l117 -117l-96 -94q30 -68 30 -162v-184q0 -94 -30 -164l94 -92l-117 -117l-90 90q-76 -43 -203 -43t-207 43l-90 -90zM311 606q0 -82 36 -122t126 -40t126 40t36 122v176 q0 82 -36 121t-126 39t-126 -39t-36 -121v-176z" />
<glyph unicode="&#xa5;" horiz-adv-x="1021" d="M82 1364h194l185 -510l63 -188l64 188l182 510h191l-187 -498h178v-151h-233l-70 -178h303v-152h-336v-385h-188v385h-342v152h307l-69 178h-238v151h182z" />
<glyph unicode="&#xa6;" horiz-adv-x="436" d="M147 -332v783h140v-783h-140zM147 911v781h140v-781h-140z" />
<glyph unicode="&#xa7;" horiz-adv-x="770" d="M63 1071v25q0 150 87.5 224.5t281.5 74.5q137 0 234 -31v-176q-98 33 -217 33t-158 -31t-39 -98.5t21.5 -94t86.5 -59.5l175 -92q178 -90 178 -254v-51h-189v37q0 47 -26.5 76.5t-104.5 70.5l-166 86q-164 86 -164 260zM78 500v49h186v-35q0 -55 23.5 -85t89.5 -62 l172 -93q88 -47 133 -105t45 -151v-22q0 -301 -393 -301q-154 0 -252 29v176q98 -33 228 -33t177.5 31.5t47.5 92t-25 90.5t-102 73l-166 86q-164 84 -164 260z" />
<glyph unicode="&#xa8;" horiz-adv-x="716" d="M119 1377q0 87 90 87t90 -87t-90 -87t-90 87zM418 1377q0 87 90 87t90 -87t-90 -87t-90 87z" />
<glyph unicode="&#xa9;" horiz-adv-x="1419" d="M88 670q0 156 27.5 271.5t93.5 209.5q137 193 502 192q369 0 501 -190q66 -94 91.5 -209t25.5 -271.5t-28.5 -271t-96.5 -208.5q-135 -193 -493 -193q-365 0 -498 190q-125 177 -125 480zM240 684q0 -119 8 -189.5t36.5 -142t80.5 -114.5q113 -94 346 -95q231 0 342 97 q93 80 118 258q8 72 8.5 175t-7 174t-35 143.5t-76.5 115.5q-111 94 -350 94q-307 0 -396 -151q-47 -80 -61 -163t-14 -202zM463 557v231q0 123 63.5 186.5t208.5 63.5q88 0 154 -16v-135q-82 20 -158 20t-99.5 -29.5t-23.5 -93.5v-225q0 -41 6.5 -63.5t36 -40t98 -17.5 t140.5 19v-135q-98 -16 -154 -17q-145 0 -208.5 64.5t-63.5 187.5z" />
<glyph unicode="&#xaa;" horiz-adv-x="688" d="M70 815v72q0 92 58 143t175 82l176 37v160q-4 94 -139 94q-111 0 -231 -35v123q110 35 235 35q268 0 268 -219v-719h-133v74q-59 -72 -184 -72q-225 0 -225 225zM203 817q0 -61 26.5 -89t113.5 -28t136 56v274l-151 -31q-66 -16 -95.5 -43.5t-29.5 -76.5v-62z" />
<glyph unicode="&#xab;" horiz-adv-x="1056" d="M125 659l248 375h194l-250 -375l250 -374h-194zM522 659l248 375h197l-250 -375l250 -374h-197z" />
<glyph unicode="&#xac;" horiz-adv-x="978" d="M125 596v172h727v-385h-197v213h-530z" />
<glyph unicode="&#xad;" horiz-adv-x="518" d="M82 588v164h364v-164h-364z" />
<glyph unicode="&#xae;" horiz-adv-x="1103" d="M160 1067q0 231 94 345t337 114t335 -113t92 -344t-93.5 -344t-337 -113t-335.5 112t-92 343zM266 1068q0 -101 9.5 -159.5t42 -108.5t97 -70.5t172 -20.5t173 20.5t98.5 70.5t43 108.5t10 159.5t-10 160.5t-43 110t-97.5 71t-173 20.5t-174 -20.5t-97 -72t-41 -110 t-9.5 -159.5zM428 801v542h154q190 0 190 -167q0 -111 -70 -152l93 -223h-111l-74 198q-10 -2 -30 -2h-50v-196h-102zM530 1083h41q57 0 80 18.5t23 73t-20.5 68.5t-69.5 14h-54v-174z" />
<glyph unicode="&#xaf;" horiz-adv-x="716" d="M117 1321v115h481v-115h-481z" />
<glyph unicode="&#xb0;" horiz-adv-x="800" d="M100 1346.5q0 146.5 73 232.5t230.5 86t230.5 -86t73 -232.5t-73 -232.5t-230.5 -86t-230.5 86t-73 232.5zM258 1346q0 -84 30.5 -127t114.5 -43t115 43t31 127t-31 127t-115 43t-114.5 -43t-30.5 -127z" />
<glyph unicode="&#xb1;" horiz-adv-x="931" d="M88 61v162h764v-162h-764zM88 588v164h293v256h178v-256h293v-164h-293v-256h-178v256h-293z" />
<glyph unicode="&#xb2;" horiz-adv-x="602" d="M63 592v188q0 88 31 138.5t111 103.5l143 96q43 31 55.5 60.5t12.5 83.5v45q0 49 -27 72.5t-116 23.5t-187 -23v123q74 23 211 23q250 0 250 -217v-64q0 -74 -25.5 -122t-87.5 -91l-133 -94q-74 -51 -90 -76.5t-16 -85.5v-61h354v-123h-486z" />
<glyph unicode="&#xb3;" horiz-adv-x="616" d="M61 606v123q104 -25 191.5 -24.5t115 24t27.5 72.5v98q0 49 -20.5 73.5t-85.5 26.5h-94v121h94q63 0 84.5 27t21.5 76v84q0 49 -26.5 72.5t-115.5 23.5t-177 -21v123q81 21 200 21q246 0 252 -211v-92q0 -121 -84 -162q84 -39 84 -162v-100q0 -215 -254 -215 q-131 0 -213 22z" />
<glyph unicode="&#xb4;" horiz-adv-x="716" d="M236 1268l81 223h164l-131 -223h-114z" />
<glyph unicode="&#xb5;" horiz-adv-x="937" d="M121 -307v1485h194v-977q49 -29 100.5 -29t74 4t40 9t35 12.5t53.5 27.5v953h193v-1178h-182v55q-90 -51 -175 -53t-139 14v-323h-194z" />
<glyph unicode="&#xb6;" horiz-adv-x="862" d="M127 1079.5q0 145.5 88 227.5t252 82h258v-1387h-195v768h-63q-166 0 -253 82t-87 227.5z" />
<glyph unicode="&#xb7;" horiz-adv-x="483" d="M137 705.5q0 105.5 105.5 105.5t105.5 -105.5t-105.5 -105.5t-105.5 105.5z" />
<glyph unicode="&#xb8;" horiz-adv-x="716" d="M211 -266q33 -14 82 -15q94 0 94 68q0 63 -96 68h-27l35 157h92l-20 -94q55 -4 94 -38t39 -104.5t-52.5 -111.5t-123 -41t-117.5 12v99z" />
<glyph unicode="&#xb9;" horiz-adv-x="450" d="M37 1235v149l172 129h143v-921h-129v784z" />
<glyph unicode="&#xba;" horiz-adv-x="677" d="M92 805v500q0 221 259 221t259 -221v-500q0 -221 -259 -221t-259 221zM225 803q0 -49 29 -72.5t98.5 -23.5t98 23.5t28.5 72.5v510q-2 45 -30.5 67.5t-96.5 22.5q-127 0 -127 -90v-510z" />
<glyph unicode="&#xbb;" horiz-adv-x="1052" d="M76 285l250 374l-250 375h196l248 -375l-248 -374h-196zM475 285l250 374l-250 375h197l248 -375l-248 -374h-197z" />
<glyph unicode="&#xbc;" horiz-adv-x="1636" d="M82 1108v152l172 129h143v-924h-129v784zM307 0l725 1389h133l-725 -1389h-133zM936 188v123l289 613h202v-619h97v-117h-97v-188h-129v188h-362zM1061 305h237v510z" />
<glyph unicode="&#xbd;" horiz-adv-x="1632" d="M82 1110v150l172 129h143v-922h-129v784zM307 0l725 1389h133l-725 -1389h-133zM1018 0v188q0 88 30.5 138.5t110.5 103.5l144 96q43 31 55 60.5t12 83.5v45q0 49 -26.5 72.5t-115.5 23.5t-188 -23v123q74 23 211 23q250 0 250 -217v-64q0 -74 -25.5 -122t-86.5 -91 l-134 -94q-74 -51 -90 -76.5t-16 -85.5v-61h354v-123h-485z" />
<glyph unicode="&#xbe;" horiz-adv-x="1708" d="M82 481v123q113 -27 195.5 -26.5t110.5 25t28 73.5v98q0 49 -20.5 73.5t-86.5 26.5h-96v121h96q63 0 85 27t22 76v82q0 51 -27 74.5t-116 23.5t-177 -21v123q74 19 201 19q246 0 252 -209v-92q0 -123 -84 -162q84 -39 84 -162v-100q0 -104 -64.5 -160.5t-188.5 -56.5 t-214 24zM399 0l725 1389h133l-722 -1389h-136zM1006 188v123l288 613h203v-619h96v-117h-96v-188h-129v188h-362zM1130 305h238v510z" />
<glyph unicode="&#xbf;" horiz-adv-x="802" d="M66 74v192q0 150 71.5 234t241.5 86l10 209h162l10 -361h-115q-102 0 -147 -42t-45 -128v-176q0 -74 42 -107.5t170 -33.5t241 39v-185q-113 -32 -254 -32q-387 0 -387 305zM356 1079.5q0 112.5 113 112.5t113 -112.5t-113 -112.5t-113 112.5z" />
<glyph unicode="&#xc0;" horiz-adv-x="927" d="M27 0l303 1389h270l299 -1389h-188l-76 369h-344l-76 -369h-188zM266 1696h164l82 -223h-115zM324 535h276l-139 673z" />
<glyph unicode="&#xc1;" horiz-adv-x="927" d="M27 0l303 1389h270l299 -1389h-188l-76 369h-344l-76 -369h-188zM324 535h276l-139 673zM401 1473l82 223h164l-131 -223h-115z" />
<glyph unicode="&#xc2;" horiz-adv-x="927" d="M27 0l303 1389h270l299 -1389h-188l-76 369h-344l-76 -369h-188zM285 1473l108 223h150l108 -223h-106l-76 122l-78 -122h-106zM324 535h276l-139 673z" />
<glyph unicode="&#xc3;" horiz-adv-x="927" d="M27 0l303 1389h270l299 -1389h-188l-76 369h-344l-76 -369h-188zM199 1485v20q4 172 151 172q57 0 127 -41t90 -41q45 0 45 68v18h121v-22q-4 -170 -149 -170q-53 0 -123 41t-96 41q-46 0 -46 -68v-18h-120zM324 535h276l-139 673z" />
<glyph unicode="&#xc4;" horiz-adv-x="927" d="M27 0l303 1389h270l299 -1389h-188l-76 369h-344l-76 -369h-188zM221 1582q0 87 90 87t90 -87t-90 -87t-90 87zM324 535h276l-139 673zM520 1582q0 87 90 87t90 -87t-90 -87t-90 87z" />
<glyph unicode="&#xc5;" horiz-adv-x="927" d="M27 0l303 1389h270l299 -1389h-188l-76 369h-344l-76 -369h-188zM305 1584.5q0 66.5 41 108.5t115 42t114.5 -42t40.5 -108.5t-40.5 -110.5t-113.5 -44t-115 44t-42 110.5zM324 535h276l-139 673zM393 1583q0 -31 18.5 -50.5t49.5 -19.5t49 19.5t18 50.5t-18 49.5 t-49 18.5t-49.5 -18.5t-18.5 -49.5z" />
<glyph unicode="&#xc6;" horiz-adv-x="1390" d="M12 0l598 1389h740v-170h-441v-433h383v-170h-383v-448h441v-168h-625v369h-367l-153 -369h-193zM426 535h299v720z" />
<glyph unicode="&#xc7;" horiz-adv-x="817" d="M106 297v795q0 145 98.5 226t297.5 81q131 0 241 -31v-178q-121 35 -237.5 35t-160.5 -37t-44 -111v-768q0 -72 45 -108.5t166 -36.5t238 33v-174q-102 -33 -244 -33l-17 -72q56 -4 95 -38t39 -104.5t-52.5 -111.5t-123 -41t-117.5 12v99q33 -14 82 -15q94 0 94 68 q0 63 -96 68h-27l31 139q-307 33 -308 303z" />
<glyph unicode="&#xc8;" horiz-adv-x="827" d="M127 0v1389h633v-170h-441v-433h383v-170h-383v-448h441v-168h-633zM258 1696h164l82 -223h-115z" />
<glyph unicode="&#xc9;" horiz-adv-x="827" d="M127 0v1389h633v-170h-441v-433h383v-170h-383v-448h441v-168h-633zM385 1473l82 223h164l-131 -223h-115z" />
<glyph unicode="&#xca;" horiz-adv-x="827" d="M127 0v1389h633v-170h-441v-433h383v-170h-383v-448h441v-168h-633zM248 1473l108 223h150l108 -223h-106l-76 122l-78 -122h-106z" />
<glyph unicode="&#xcb;" horiz-adv-x="827" d="M127 0v1389h633v-170h-441v-433h383v-170h-383v-448h441v-168h-633zM207 1582q0 87 90 87t90 -87t-90 -87t-90 87zM506 1582q0 87 90 87t90 -87t-90 -87t-90 87z" />
<glyph unicode="&#xcc;" horiz-adv-x="827" d="M127 0v1389h633v-170h-441v-433h383v-170h-383v-448h441v-168h-633zM256 1696h164l82 -223h-115z" />
<glyph unicode="&#xcd;" horiz-adv-x="827" d="M127 0v1389h633v-170h-441v-433h383v-170h-383v-448h441v-168h-633zM385 1473l82 223h164l-131 -223h-115z" />
<glyph unicode="&#xce;" d="M47 1473l109 223h149l109 -223h-107l-76 122l-77 -122h-107zM127 0v1389h195v-1389h-195z" />
<glyph unicode="&#xcf;" d="M-18 1582q0 87 90 87t90 -87t-90 -87t-90 87zM127 0v1389h195v-1389h-195zM281 1582q0 87 90 87t90 -87t-90 -87t-90 87z" />
<glyph unicode="&#xd0;" horiz-adv-x="974" d="M-10 600v164h145v625h402q164 0 249.5 -82t85.5 -230v-758q0 -150 -80.5 -234.5t-246.5 -84.5h-410v600h-145zM328 168h190q162 0 162 162v741q0 156 -162 156h-190v-463h190v-164h-190v-432z" />
<glyph unicode="&#xd1;" horiz-adv-x="1042" d="M127 0v1389h207q285 -721 346 -893t70 -195q0 18 -11.5 181t-13.5 315v592h190v-1389h-204q-322 821 -420 1090q0 -23 8 -95q16 -178 16 -395v-600h-188zM268 1485v20q4 172 152 172q57 0 126.5 -41t90.5 -41q45 0 45 68v18h121v-22q-4 -170 -150 -170q-53 0 -122.5 41 t-96.5 41q-45 0 -45 -68v-18h-121z" />
<glyph unicode="&#xd2;" horiz-adv-x="954" d="M106 315v756q0 154 93.5 246t276.5 92t277.5 -93t94.5 -245v-756q0 -152 -94.5 -243.5t-276.5 -91.5t-276.5 92t-94.5 243zM279 1696h163l82 -223h-114zM299 324q0 -170 178 -170t178 170v741q0 168 -178 168t-178 -168v-741z" />
<glyph unicode="&#xd3;" horiz-adv-x="954" d="M106 315v756q0 154 93.5 246t276.5 92t277.5 -93t94.5 -245v-756q0 -152 -94.5 -243.5t-276.5 -91.5t-276.5 92t-94.5 243zM299 324q0 -170 178 -170t178 170v741q0 168 -178 168t-178 -168v-741zM426 1473l82 223h164l-131 -223h-115z" />
<glyph unicode="&#xd4;" horiz-adv-x="954" d="M106 315v756q0 154 93.5 246t276.5 92t277.5 -93t94.5 -245v-756q0 -152 -94.5 -243.5t-276.5 -91.5t-276.5 91.5t-94.5 243.5zM295 1473l108 223h150l109 -223h-107l-76 122l-78 -122h-106zM299 324q0 -170 178 -170t178 170v741q0 168 -178 168t-178 -168v-741z" />
<glyph unicode="&#xd5;" horiz-adv-x="954" d="M106 315v756q0 154 93.5 246t276.5 92t277.5 -93t94.5 -245v-756q0 -152 -94.5 -243.5t-276.5 -91.5t-276.5 92t-94.5 243zM209 1485v20q4 172 151 172q57 0 127 -41t91 -41q45 0 45 68v18h120v-22q-4 -170 -149 -170q-53 0 -123 41t-96 41q-45 0 -45 -68v-18h-121z M299 324q0 -170 178 -170t178 170v741q0 168 -178 168t-178 -168v-741z" />
<glyph unicode="&#xd6;" horiz-adv-x="954" d="M106 315v756q0 154 93.5 246t276.5 92t277.5 -93t94.5 -245v-756q0 -152 -94.5 -243.5t-276.5 -91.5t-276.5 92t-94.5 243zM238 1582q0 87 90 87t90 -87t-90 -87t-90 87zM299 324q0 -170 178 -170t178 170v741q0 168 -178 168t-178 -168v-741zM537 1582q0 87 90 87 t90 -87t-90 -87t-90 87z" />
<glyph unicode="&#xd7;" horiz-adv-x="837" d="M70 436l233 234l-233 233l116 115l232 -232l231 232l117 -115l-231 -231l233 -236l-117 -114l-233 233l-234 -233z" />
<glyph unicode="&#xd8;" horiz-adv-x="954" d="M102 0l56 123q-51 78 -52 192v756q0 154 93.5 246t277.5 92q137 0 228 -55l16 35h131l-55 -125q51 -78 51 -193v-756q0 -152 -94.5 -243.5t-276.5 -91.5q-137 0 -227 55l-17 -35h-131zM299 442l326 732q-43 59 -148 59q-178 0 -178 -168v-623zM330 215q43 -61 147 -61 q178 0 178 170v622z" />
<glyph unicode="&#xd9;" horiz-adv-x="970" d="M117 315v1074h192v-1065q0 -170 176.5 -170t176.5 170v1065h192v-1074q0 -152 -93 -243.5t-275.5 -91.5t-275.5 92t-93 243zM297 1696h164l82 -223h-115z" />
<glyph unicode="&#xda;" horiz-adv-x="970" d="M117 315v1074h192v-1065q0 -170 176.5 -170t176.5 170v1065h192v-1074q0 -152 -93 -243.5t-275.5 -91.5t-275.5 92t-93 243zM428 1473l82 223h164l-131 -223h-115z" />
<glyph unicode="&#xdb;" horiz-adv-x="970" d="M117 315v1074h192v-1065q0 -170 176.5 -170t176.5 170v1065h192v-1074q0 -152 -93 -243.5t-275.5 -91.5t-275.5 92t-93 243zM301 1473l109 223h149l109 -223h-107l-76 122l-77 -122h-107z" />
<glyph unicode="&#xdc;" horiz-adv-x="970" d="M117 315v1074h192v-1065q0 -170 176.5 -170t176.5 170v1065h192v-1074q0 -152 -93 -243.5t-275.5 -91.5t-275.5 92t-93 243zM244 1582q0 87 90 87t90 -87t-90 -87t-90 87zM543 1582q0 87 90 87t90 -87t-90 -87t-90 87z" />
<glyph unicode="&#xdd;" horiz-adv-x="880" d="M6 1389h199l117 -328q63 -184 122 -391q57 201 121 391l117 328h195l-338 -932v-457h-195v457zM379 1473l82 223h164l-131 -223h-115z" />
<glyph unicode="&#xde;" horiz-adv-x="892" d="M147 0v1389h187v-238h174q166 0 253 -82t87 -229v-291q0 -145 -88 -228t-252 -83h-174v-238h-187zM334 408h164q164 -1 164 155v262q0 158 -164 158h-164v-575z" />
<glyph unicode="&#xdf;" horiz-adv-x="1118" d="M127 0v1110q0 176 100.5 269.5t283.5 93.5t284.5 -87.5t101.5 -238.5q0 -84 -39 -152.5t-77 -119t-38 -89.5v-22q0 -41 35 -79t124 -90t132 -108.5t43 -138.5v-59q0 -297 -379 -297q-123 0 -233 31v176q100 -35 217 -35t163 34.5t46 102.5v31q0 49 -32 86t-124 90 t-139 106.5t-47 130.5v31q0 78 79 182.5t79 180.5q0 162 -187 161q-109 0 -159 -49t-50 -153v-1098h-184z" />
<glyph unicode="&#xe0;" horiz-adv-x="878" d="M57 279v67q0 115 59.5 185.5t190.5 107.5l268 74v157q0 76 -40.5 110t-173 34t-246.5 -41v176q117 39 297 39q350 0 350 -318v-870h-184v84q-90 -90 -238 -90q-283 0 -283 285zM240 1491h163l82 -223h-114zM248 276q0 -68 31.5 -100.5t125 -32.5t170.5 64v342l-194 -53 q-80 -23 -106.5 -56.5t-26.5 -101.5v-62z" />
<glyph unicode="&#xe1;" horiz-adv-x="878" d="M57 279v67q0 115 59.5 185.5t190.5 107.5l268 74v157q0 76 -40.5 110t-173 34t-246.5 -41v176q117 39 297 39q350 0 350 -318v-870h-184v84q-90 -90 -238 -90q-283 0 -283 285zM248 276q0 -68 31.5 -100.5t125 -32.5t170.5 64v342l-194 -53q-80 -23 -106.5 -56.5 t-26.5 -101.5v-62zM362 1268l82 223h164l-131 -223h-115z" />
<glyph unicode="&#xe2;" horiz-adv-x="878" d="M57 279v67q0 115 59.5 185.5t190.5 107.5l268 74v157q0 76 -40.5 110t-173 34t-246.5 -41v176q117 39 297 39q350 0 350 -318v-870h-184v84q-90 -90 -238 -90q-283 0 -283 285zM248 276q0 -68 31.5 -100.5t125 -32.5t170.5 64v342l-194 -53q-80 -23 -106.5 -56.5 t-26.5 -101.5v-62zM256 1268l109 223h149l109 -223h-107l-76 123l-78 -123h-106z" />
<glyph unicode="&#xe3;" horiz-adv-x="878" d="M57 279v67q0 115 59.5 185.5t190.5 107.5l268 74v157q0 76 -40.5 110t-173 34t-246.5 -41v176q117 39 297 39q350 0 350 -318v-870h-184v84q-90 -90 -238 -90q-283 0 -283 285zM166 1280v20q4 172 151 173q57 0 127 -41t91 -41q45 0 45 67v19h120v-23q-4 -170 -149 -170 q-53 0 -123 41t-96 41q-45 0 -45 -68v-18h-121zM248 276q0 -68 31.5 -100.5t125 -32.5t170.5 64v342l-194 -53q-80 -23 -106.5 -56.5t-26.5 -101.5v-62z" />
<glyph unicode="&#xe4;" horiz-adv-x="878" d="M57 279v67q0 115 59.5 185.5t190.5 107.5l268 74v157q0 76 -40.5 110t-173 34t-246.5 -41v176q117 39 297 39q350 0 350 -318v-870h-184v84q-90 -90 -238 -90q-283 0 -283 285zM190 1377q0 87 90.5 87t90.5 -87t-90.5 -87t-90.5 87zM248 276q0 -68 31.5 -100.5t125 -32.5 t170.5 64v342l-194 -53q-80 -23 -106.5 -56.5t-26.5 -101.5v-62zM489 1377q0 87 90.5 87t90.5 -87t-90.5 -87t-90.5 87z" />
<glyph unicode="&#xe5;" horiz-adv-x="878" d="M57 279v67q0 115 59.5 185.5t190.5 107.5l268 74v157q0 76 -40.5 110t-173 34t-246.5 -41v176q117 39 297 39q350 0 350 -318v-870h-184v84q-90 -90 -238 -90q-283 0 -283 285zM248 276q0 -68 31.5 -100.5t125 -32.5t170.5 64v342l-194 -53q-80 -23 -106.5 -56.5 t-26.5 -101.5v-62zM272 1379.5q0 66.5 41 108.5t115 42t115 -42t41 -108.5t-41 -110.5t-114 -44t-115 44t-42 110.5zM360 1378.5q0 -30.5 18.5 -50t49.5 -19.5t49.5 19.5t18.5 50t-18.5 49t-49.5 18.5t-49.5 -18.5t-18.5 -49z" />
<glyph unicode="&#xe6;" horiz-adv-x="1333" d="M61 276v70q0 115 58.5 185.5t187.5 109.5l268 78l-2 160q0 68 -39.5 101.5t-175 33.5t-243.5 -43v178q121 39 294 39t257 -84q98 94 267 94t253 -87t84 -234v-375h-510v-180q0 -84 54 -122t179 -38t244 37v-176q-123 -33 -262 -33q-211 0 -305 88q-109 -86 -312 -86 q-297 0 -297 284zM248 276q0 -133 139 -133q115 0 191 60v348l-197 -53q-78 -23 -105.5 -57.5t-27.5 -102.5v-62zM760 657h327v217q0 160 -163.5 160t-163.5 -160v-217z" />
<glyph unicode="&#xe7;" horiz-adv-x="761" d="M106 301v576q0 311 361 311q129 0 229 -29v-178q-102 29 -207.5 29t-147.5 -35t-42 -111v-553q0 -76 42 -110.5t150.5 -34.5t206.5 33v-181q-119 -29 -225 -28l-16 -72q55 -4 94 -38t39 -104.5t-52.5 -111.5t-123 -41t-117.5 12v99q33 -14 82 -15q94 0 94 68q0 63 -96 68 h-27l31 139q-274 35 -275 307z" />
<glyph unicode="&#xe8;" horiz-adv-x="890" d="M106 311v566q0 147 86.5 234t262.5 87t260 -87t84 -234v-375h-504v-180q0 -82 50 -121t176 -39t245 37v-176q-123 -33 -262 -33q-398 -1 -398 321zM276 1491h164l82 -223h-114zM295 657h321v217q0 160 -160.5 160t-160.5 -160v-217z" />
<glyph unicode="&#xe9;" horiz-adv-x="890" d="M106 311v566q0 147 86.5 234t262.5 87t260 -87t84 -234v-375h-504v-180q0 -82 50 -121t176 -39t245 37v-176q-123 -33 -262 -33q-398 -1 -398 321zM295 657h321v217q0 160 -160.5 160t-160.5 -160v-217zM401 1268l82 223h164l-131 -223h-115z" />
<glyph unicode="&#xea;" horiz-adv-x="890" d="M106 311v566q0 147 86.5 234t262.5 87t260 -87t84 -234v-375h-504v-180q0 -82 50 -121t176 -39t245 37v-176q-123 -33 -262 -33q-398 -1 -398 321zM283 1268l108 223h150l108 -223h-106l-76 123l-78 -123h-106zM295 657h321v217q0 160 -160.5 160t-160.5 -160v-217z" />
<glyph unicode="&#xeb;" horiz-adv-x="890" d="M106 311v566q0 147 86.5 234t262.5 87t260 -87t84 -234v-375h-504v-180q0 -82 50 -121t176 -39t245 37v-176q-123 -33 -262 -33q-398 -1 -398 321zM221 1377q0 87 90 87t90 -87t-90 -87t-90 87zM295 657h321v217q0 160 -160.5 160t-160.5 -160v-217zM520 1377q0 87 90 87 t90 -87t-90 -87t-90 87z" />
<glyph unicode="&#xec;" d="M29 1491h164l81 -223h-114zM127 0v1163h192v-1163h-192z" />
<glyph unicode="&#xed;" d="M127 0v1163h192v-1163h-192zM164 1268l82 223h164l-131 -223h-115z" />
<glyph unicode="&#xee;" d="M41 1268l109 223h149l109 -223h-107l-76 123l-78 -123h-106zM127 0v1163h192v-1163h-192z" />
<glyph unicode="&#xef;" d="M-16 1377q0 87 90 87t90 -87t-90 -87t-90 87zM127 0v1163h192v-1163h-192zM283 1377q0 87 90 87t90 -87t-90 -87t-90 87z" />
<glyph unicode="&#xf0;" horiz-adv-x="927" d="M117 307v307q0 307 305 308q111 0 174 -68q-35 139 -119 276l-221 -106v119l164 78q-57 80 -139 168h231q43 -47 72 -91l204 99v-117l-147 -70q172 -284 172 -579v-324q0 -150 -88 -236.5t-262 -86.5t-260 87t-86 236zM303 313q0 -160 161 -160t161 158v406 q-47 51 -147.5 51t-137.5 -39t-37 -119v-297z" />
<glyph unicode="&#xf1;" horiz-adv-x="931" d="M127 0v1178h184v-54q131 57 245 57.5t186.5 -68.5t72.5 -198v-915h-197v883q0 121 -120 121q-88 0 -179 -46v-958h-192zM203 1280v20q4 172 151 173q57 0 127 -41t90 -41q45 0 45 67v19h121v-23q-4 -170 -149 -170q-53 0 -123 41t-96 41q-45 0 -45 -68v-18h-121z" />
<glyph unicode="&#xf2;" horiz-adv-x="909" d="M106 301v576q0 147 86.5 234t262.5 87t263 -87t87 -234v-576q0 -147 -87 -234t-263 -87t-262.5 87t-86.5 234zM276 1491h164l82 -223h-114zM297 305q0 -158 157.5 -158t157.5 158v567q0 158 -157.5 158t-157.5 -158v-567z" />
<glyph unicode="&#xf3;" horiz-adv-x="909" d="M106 301v576q0 147 86.5 234t262.5 87t263 -87t87 -234v-576q0 -147 -87 -234t-263 -87t-262.5 87t-86.5 234zM297 305q0 -158 157.5 -158t157.5 158v567q0 158 -157.5 158t-157.5 -158v-567zM406 1268l81 223h164l-131 -223h-114z" />
<glyph unicode="&#xf4;" horiz-adv-x="909" d="M106 301v576q0 147 86.5 234t262.5 87t263 -87t87 -234v-576q0 -147 -87 -234t-263 -87t-262.5 87t-86.5 234zM279 1268l108 223h150l108 -223h-106l-76 123l-78 -123h-106zM297 305q0 -158 157.5 -158t157.5 158v567q0 158 -157.5 158t-157.5 -158v-567z" />
<glyph unicode="&#xf5;" horiz-adv-x="909" d="M106 301v576q0 147 86.5 234t262.5 87t263 -87t87 -234v-576q0 -147 -87 -234t-263 -87t-262.5 87t-86.5 234zM195 1280v20q4 172 151 173q57 0 127 -41t90 -41q45 0 45 67v19h121v-23q-4 -170 -149 -170q-53 0 -123 41t-97 41q-45 0 -45 -68v-18h-120zM297 305 q0 -158 157.5 -158t157.5 158v567q0 158 -157.5 158t-157.5 -158v-567z" />
<glyph unicode="&#xf6;" horiz-adv-x="909" d="M106 301v576q0 147 86.5 234t262.5 87t263 -87t87 -234v-576q0 -147 -87 -234t-263 -87t-262.5 87t-86.5 234zM227 1377q0 87 90.5 87t90.5 -87t-90.5 -87t-90.5 87zM297 305q0 -158 157.5 -158t157.5 158v567q0 158 -157.5 158t-157.5 -158v-567zM526 1377q0 87 90.5 87 t90.5 -87t-90.5 -87t-90.5 87z" />
<glyph unicode="&#xf7;" horiz-adv-x="931" d="M82 586v162h766v-162h-766zM362 314.5q0 105.5 105.5 105.5t105.5 -105.5t-105.5 -105.5t-105.5 105.5zM362 1016.5q0 105.5 105.5 105.5t105.5 -105.5t-105.5 -105.5t-105.5 105.5z" />
<glyph unicode="&#xf8;" horiz-adv-x="909" d="M100 0l58 109q-51 78 -52 192v576q0 147 86.5 234t249 87t250.5 -65l23 45h106l-61 -119q45 -76 45 -182v-576q0 -147 -87 -234t-247 -87t-244 59l-20 -39h-107zM297 377l301 577q-33 76 -143 76q-158 0 -158 -158v-495zM317 213q37 -66 138 -66q157 0 157 158v473z" />
<glyph unicode="&#xf9;" horiz-adv-x="933" d="M117 283v895h194v-869q0 -139 135 -139q86 0 168 51v957h195v-1178h-184v55q-106 -59 -235.5 -59t-201 73.5t-71.5 213.5zM264 1491h164l82 -223h-115z" />
<glyph unicode="&#xfa;" horiz-adv-x="933" d="M117 283v895h194v-869q0 -139 135 -139q86 0 168 51v957h195v-1178h-184v55q-106 -59 -235.5 -59t-201 73.5t-71.5 213.5zM408 1268l81 223h164l-131 -223h-114z" />
<glyph unicode="&#xfb;" horiz-adv-x="933" d="M117 283v895h194v-869q0 -139 135 -139q86 0 168 51v957h195v-1178h-184v55q-106 -59 -235.5 -59t-201 73.5t-71.5 213.5zM283 1268l108 223h150l108 -223h-106l-76 123l-78 -123h-106z" />
<glyph unicode="&#xfc;" horiz-adv-x="933" d="M117 283v895h194v-869q0 -139 135 -139q86 0 168 51v957h195v-1178h-184v55q-106 -59 -235.5 -59t-201 73.5t-71.5 213.5zM227 1377q0 87 90.5 87t90.5 -87t-90.5 -87t-90.5 87zM526 1377q0 87 90.5 87t90.5 -87t-90.5 -87t-90.5 87z" />
<glyph unicode="&#xfd;" horiz-adv-x="829" d="M33 1178h192q158 -772 191 -1035q33 244 86 512l106 523h191l-310 -1483h-186l62 305h-82zM350 1268l82 223h164l-131 -223h-115z" />
<glyph unicode="&#xfe;" horiz-adv-x="935" d="M127 -346v1837h192v-363q117 53 236 53.5t191.5 -67t72.5 -199.5v-610q0 -147 -83 -226t-222 -79h-195v-346h-192zM319 174h148q158 0 158 148v563q0 121 -125 121q-82 0 -181 -45v-787z" />
<glyph unicode="&#xff;" horiz-adv-x="829" d="M33 1178h192q158 -772 191 -1035q33 244 86 512l106 523h191l-310 -1483h-186l62 305h-82zM174 1377q0 87 90 87t90 -87t-90 -87t-90 87zM473 1377q0 87 90 87t90 -87t-90 -87t-90 87z" />
<glyph unicode="&#x152;" horiz-adv-x="1396" d="M147 319v758q0 147 86 229.5t250 82.5h856v-170h-440v-433h383v-170h-383v-448h440v-168h-864q-168 0 -248 85t-80 234zM340 330q0 -162 162 -162h205v1059h-205q-162 0 -162 -156v-741z" />
<glyph unicode="&#x153;" horiz-adv-x="1429" d="M117 301v576q0 147 87 234t258 87t261 -80q90 80 260 80t254 -87t84 -234v-375h-504v-180q0 -82 50.5 -121t175 -39t245.5 37v-176q-123 -33 -262 -33q-197 0 -297 78q-88 -88 -263 -88t-262 87t-87 234zM309 305q0 -158 158 -158t158 158v567q0 158 -158 158t-158 -158 v-567zM817 657h322v217q0 160 -161 160t-161 -160v-217z" />
<glyph unicode="&#x178;" horiz-adv-x="880" d="M6 1389h199l117 -328q63 -184 122 -391q57 201 121 391l117 328h195l-338 -932v-457h-195v457zM197 1582q0 87 90 87t90 -87t-90 -87t-90 87zM496 1582q0 87 90 87t90 -87t-90 -87t-90 87z" />
<glyph unicode="&#x2c6;" horiz-adv-x="716" d="M174 1268l109 223h149l109 -223h-107l-76 123l-77 -123h-107z" />
<glyph unicode="&#x2dc;" horiz-adv-x="716" d="M90 1280v20q4 172 152 173q57 0 126.5 -41t90.5 -41q45 0 45 67v19h121v-23q-4 -170 -150 -170q-53 0 -122.5 41t-96.5 41q-45 0 -45 -68v-18h-121z" />
<glyph unicode="&#x2000;" horiz-adv-x="867" />
<glyph unicode="&#x2001;" horiz-adv-x="1735" />
<glyph unicode="&#x2002;" horiz-adv-x="867" />
<glyph unicode="&#x2003;" horiz-adv-x="1735" />
<glyph unicode="&#x2004;" horiz-adv-x="578" />
<glyph unicode="&#x2005;" horiz-adv-x="433" />
<glyph unicode="&#x2006;" horiz-adv-x="289" />
<glyph unicode="&#x2007;" horiz-adv-x="289" />
<glyph unicode="&#x2008;" horiz-adv-x="216" />
<glyph unicode="&#x2009;" horiz-adv-x="347" />
<glyph unicode="&#x200a;" horiz-adv-x="96" />
<glyph unicode="&#x2010;" horiz-adv-x="518" d="M82 588v164h364v-164h-364z" />
<glyph unicode="&#x2011;" horiz-adv-x="518" d="M82 588v164h364v-164h-364z" />
<glyph unicode="&#x2012;" horiz-adv-x="518" d="M82 588v164h364v-164h-364z" />
<glyph unicode="&#x2013;" horiz-adv-x="958" d="M82 588v162h774v-162h-774z" />
<glyph unicode="&#x2014;" horiz-adv-x="1437" d="M82 588v164h1251v-164h-1251z" />
<glyph unicode="&#x2018;" horiz-adv-x="354" d="M57 1116q0 59 49.5 169t96.5 188h94l-84 -439h-70q-86 0 -86 82z" />
<glyph unicode="&#x2019;" horiz-adv-x="354" d="M57 1034l84 439h70q86 0 86 -82q0 -106 -145 -357h-95z" />
<glyph unicode="&#x201a;" horiz-adv-x="354" d="M57 -229l84 438h70q86 0 86 -82q0 -106 -145 -356h-95z" />
<glyph unicode="&#x201c;" horiz-adv-x="614" d="M57 1116q0 59 49.5 169t96.5 188h86l-84 -439h-62q-86 0 -86 82zM326 1116q0 111 143 357h88l-84 -439h-61q-86 0 -86 82z" />
<glyph unicode="&#x201d;" horiz-adv-x="614" d="M57 1034l84 439h62q86 0 86 -82q0 -59 -49.5 -169t-96.5 -188h-86zM326 1034l82 439h63q86 0 86 -82q0 -59 -49 -169t-96 -188h-86z" />
<glyph unicode="&#x201e;" horiz-adv-x="614" d="M57 -229l84 438h62q86 0 86 -82q0 -59 -49.5 -169t-96.5 -187h-86zM326 -229l82 438h63q86 0 86 -82q0 -59 -49 -169t-96 -187h-86z" />
<glyph unicode="&#x2022;" horiz-adv-x="540" d="M104 674q0 164 165 164t165 -164t-165 -164t-165 164z" />
<glyph unicode="&#x2026;" horiz-adv-x="1259" d="M104 101.5q0 105.5 105.5 105.5t105.5 -105.5t-105.5 -105.5t-105.5 105.5zM510 101.5q0 105.5 105.5 105.5t105.5 -105.5t-105.5 -105.5t-105.5 105.5zM915 101.5q0 105.5 105.5 105.5t105.5 -105.5t-105.5 -105.5t-105.5 105.5z" />
<glyph unicode="&#x202f;" horiz-adv-x="347" />
<glyph unicode="&#x2039;" horiz-adv-x="819" d="M172 659l248 375h196l-249 -375l249 -374h-196z" />
<glyph unicode="&#x203a;" horiz-adv-x="778" d="M172 285l250 374l-250 375h197l247 -375l-247 -374h-197z" />
<glyph unicode="&#x205f;" horiz-adv-x="433" />
<glyph unicode="&#x20ac;" horiz-adv-x="872" d="M33 498v135h106v141h-106v133h106v185q0 145 98.5 226t297.5 81q131 0 241 -31v-178q-121 35 -237.5 35t-160.5 -37t-44 -111v-170h284v-133h-284v-141h284v-135h-284v-189q0 -72 45 -108.5t166 -36.5t237 33v-174q-106 -33 -250 -33q-393 0 -393 307v201h-106z" />
<glyph unicode="&#x2122;" horiz-adv-x="1191" d="M166 1360v86h371v-86h-134v-416h-104v416h-133zM580 944v502h153l72 -287l16 -96l17 96l71 287h152v-502h-98v264l22 197l-123 -461h-82l-123 461l23 -197v-264h-100z" />
<glyph unicode="&#x25fc;" horiz-adv-x="1177" d="M0 0v1178h1178v-1178h-1178z" />
</font>
</defs>
</svg>
